<?xml version="1.0" standalone="no"?>
<!DOCTYPE svg PUBLIC "-//W3C//DTD SVG 20010904//EN"
 "http://www.w3.org/TR/2001/REC-SVG-20010904/DTD/svg10.dtd">
<svg version="1.0" xmlns="http://www.w3.org/2000/svg"
 width="300.000000pt" height="173.000000pt" viewBox="0 0 300.000000 173.000000"
 preserveAspectRatio="xMidYMid meet">
<metadata>
Created by potrace 1.10, written by Peter Selinger 2001-2011
</metadata>
<g transform="translate(0.000000,173.000000) scale(0.100000,-0.100000)"
fill="#000000" stroke="none">
<path d="M911 1651 l-71 -78 -131 49 c-127 47 -133 48 -149 31 -10 -10 -127
-148 -262 -308 -135 -159 -252 -296 -261 -304 -9 -7 -17 -18 -17 -25 0 -6 82
70 183 169 100 99 233 229 294 290 l113 109 83 -27 c93 -30 122 -35 92 -13
-21 14 -152 56 -176 56 -8 0 -60 -46 -117 -101 -57 -56 -105 -99 -108 -96 -2
2 12 22 32 43 20 21 49 58 65 81 16 23 38 48 48 55 10 7 23 23 30 36 6 12 18
22 27 22 12 0 91 -27 189 -66 11 -4 41 -8 68 -9 36 -1 54 -8 75 -27 15 -14 37
-29 50 -33 13 -4 21 -9 18 -12 -2 -3 -21 0 -40 7 -20 6 -62 13 -95 14 l-59 3
-206 -228 c-113 -126 -203 -229 -200 -229 2 0 42 35 87 78 163 152 399 357
410 356 9 -2 1575 -520 1665 -551 12 -4 14 -3 7 5 -5 6 -86 38 -180 71 -93 33
-222 78 -285 101 -222 81 -1135 413 -1148 418 -9 3 -3 15 20 39 54 57 56 57
170 14 57 -22 337 -128 623 -235 854 -319 880 -329 883 -331 2 -2 -23 -45 -56
-96 -32 -52 -78 -132 -101 -178 -25 -49 -62 -102 -88 -127 -44 -41 -52 -70
-20 -68 13 1 9 -12 -18 -65 -94 -187 -141 -408 -99 -458 43 -50 115 -27 173
57 134 191 179 444 92 522 l-29 26 58 26 c64 29 88 31 136 14 55 -20 81 23 36
60 -23 18 -84 15 -142 -7 -27 -11 -48 -16 -46 -13 38 71 99 170 133 218 l43
62 127 -49 c174 -67 190 -61 21 8 l-136 55 44 55 c47 58 53 86 18 91 -20 3
-86 -58 -111 -103 -10 -17 -22 -14 -189 55 -161 65 -1376 566 -1466 604 l-36
16 -71 -79z m209 -7 c19 -9 48 -22 63 -30 16 -8 35 -14 43 -14 8 0 14 -5 14
-12 0 -6 2 -9 5 -6 8 8 79 -18 83 -31 2 -6 -8 -4 -25 4 -15 8 -34 15 -42 15
-8 0 -33 9 -55 19 -23 11 -74 31 -113 45 l-73 26 -50 -45 c-47 -42 -80 -57
-80 -36 0 8 42 62 80 103 16 17 27 14 150 -38z m250 -104 c13 -8 13 -10 -2
-10 -9 0 -20 5 -23 10 -8 13 5 13 25 0z m-581 -86 c-18 -20 -43 -40 -54 -46
-11 -6 0 10 25 36 24 25 49 46 54 46 5 0 -6 -16 -25 -36z m242 18 c-7 -2 -18
1 -23 6 -8 8 -4 9 13 5 13 -4 18 -8 10 -11z m114 -32 c13 -5 14 -9 5 -9 -8 0
-24 4 -35 9 -13 5 -14 9 -5 9 8 0 24 -4 35 -9z m1635 -319 c0 -6 -10 -17 -22
-26 -13 -8 -22 -19 -21 -23 1 -4 -5 -16 -15 -27 -54 -65 -152 -209 -182 -268
-19 -38 -21 -51 -12 -71 9 -21 7 -25 -14 -35 -38 -17 -39 -37 -5 -76 18 -21
31 -47 31 -63 0 -26 0 -26 -18 8 -41 76 -71 67 -118 -37 -33 -73 -93 -228
-109 -282 -12 -39 -9 -129 5 -146 19 -23 51 -18 82 12 15 15 28 22 28 16 0
-17 -78 -83 -99 -83 -28 0 -51 38 -51 82 0 45 18 136 33 163 6 11 12 29 14 39
2 11 8 25 13 31 5 7 8 14 5 17 -3 2 13 47 36 99 35 80 39 97 28 114 -10 17 -7
23 28 55 25 22 60 73 93 135 71 137 122 215 140 215 12 0 12 2 2 8 -10 7 -5
18 20 45 18 20 46 52 61 72 27 34 47 45 47 26z m-68 -409 c9 -9 9 -12 -2 -12
-29 0 -60 12 -54 21 7 11 41 6 56 -9z m-205 -215 c8 -67 -23 -186 -72 -285
-51 -101 -87 -142 -112 -126 -40 25 -6 164 97 397 42 96 42 96 62 77 12 -11
22 -36 25 -63z m30 -84 c-3 -10 -5 -4 -5 12 0 17 2 24 5 18 2 -7 2 -21 0 -30z
m-16 -66 c-10 -9 -11 -8 -5 6 3 10 9 15 12 12 3 -3 0 -11 -7 -18z m-11 -51 c0
-3 -4 -8 -10 -11 -5 -3 -10 -1 -10 4 0 6 5 11 10 11 6 0 10 -2 10 -4z m-26
-63 c-14 -33 -44 -77 -33 -48 26 68 34 85 40 85 5 0 1 -17 -7 -37z m-46 -88
c-6 -14 -15 -25 -20 -25 -5 0 -1 11 8 25 9 14 18 25 20 25 2 0 -2 -11 -8 -25z"/>
<path d="M4 964 c3 -9 6 -129 6 -266 0 -138 2 -249 5 -247 2 3 5 116 6 251 1
244 1 246 22 250 12 2 35 1 51 -2 26 -4 27 -6 13 -19 -14 -11 -17 -33 -17
-117 0 -90 2 -105 19 -116 20 -14 20 -14 0 -26 -17 -11 -19 -24 -19 -137 l0
-124 33 -10 c27 -9 21 -10 -40 -8 -68 2 -83 -3 -83 -29 0 -2 88 -4 195 -4
l195 0 0 30 0 30 -140 0 -140 0 0 115 0 115 126 0 125 0 -3 33 -3 32 -122 0
-123 0 0 103 0 103 130 -3 130 -3 0 33 0 32 -186 0 c-166 0 -185 -2 -180 -16z
m279 -21 c-29 -2 -77 -2 -105 0 -29 2 -6 3 52 3 58 0 81 -1 53 -3z m-80 -550
c-7 -2 -21 -2 -30 0 -10 3 -4 5 12 5 17 0 24 -2 18 -5z m120 0 c-13 -2 -35 -2
-50 0 -16 2 -5 4 22 4 28 0 40 -2 28 -4z"/>
<path d="M538 670 l-3 -310 193 0 192 0 0 30 0 30 -135 0 -135 0 0 280 0 280
-55 0 -54 0 -3 -310z m83 12 c-1 -252 0 -262 20 -275 19 -14 19 -15 -16 -19
-19 -2 -40 -1 -46 3 -8 4 -12 93 -13 282 -1 269 0 276 19 280 11 1 24 0 28 -4
5 -3 8 -124 8 -267z"/>
<path d="M1058 670 l-3 -310 58 0 57 0 0 310 0 310 -55 0 -54 0 -3 -310z m87
125 c0 -85 -4 -155 -8 -155 -5 0 -6 -4 -3 -9 5 -7 9 -163 7 -223 -1 -13 -9
-18 -29 -18 l-28 0 -2 280 -1 280 32 0 32 0 0 -155z"/>
<path d="M1310 945 l0 -35 88 0 87 0 -3 -275 -3 -275 61 0 61 0 -3 275 -3 275
88 0 87 0 0 35 0 35 -230 0 -230 0 0 -35z m65 5 c-3 -5 -14 -10 -23 -9 -14 0
-13 2 3 9 27 11 27 11 20 0z m218 3 c4 -3 0 -14 -8 -23 -12 -14 -15 -62 -17
-278 l-2 -262 -28 0 -28 0 0 259 c0 223 -2 262 -16 275 -8 9 -21 16 -27 16 -7
0 -6 4 3 10 17 11 113 14 123 3z m-155 -10 c-10 -2 -26 -2 -35 0 -10 3 -2 5
17 5 19 0 27 -2 18 -5z m280 0 c-16 -2 -40 -2 -55 0 -16 2 -3 4 27 4 30 0 43
-2 28 -4z"/>
<path d="M2018 960 c-14 -10 -31 -33 -38 -50 -11 -27 -11 -34 4 -48 15 -15 19
-15 44 -2 15 9 36 32 47 52 16 30 17 39 6 52 -18 21 -33 20 -63 -4z m42 -23
c0 -16 -37 -57 -50 -57 -17 0 -11 29 10 50 23 23 40 26 40 7z"/>
<path d="M2866 739 c-55 -37 -114 -110 -150 -189 -32 -69 -36 -158 -8 -183 40
-36 107 -14 165 54 46 53 109 181 118 238 l6 44 -18 -24 c-18 -23 -19 -23 -19
-3 0 51 -54 54 -105 5 -97 -92 -145 -203 -111 -256 13 -20 22 -22 67 -16 4 1
21 16 39 34 31 30 32 30 15 4 -21 -33 -62 -63 -97 -72 -117 -30 -33 250 103
340 49 32 82 35 110 9 19 -17 20 -17 13 2 -20 54 -59 58 -128 13z m74 -53 c0
-27 -19 -64 -50 -100 -25 -28 -30 -39 -21 -50 8 -10 4 -23 -19 -54 -39 -54
-67 -69 -88 -48 -13 13 -14 21 -3 58 7 23 28 65 45 93 53 82 136 144 136 101z
m30 -41 c0 -12 -59 -131 -73 -150 -15 -19 -16 -18 -10 20 3 22 19 56 34 76 16
20 29 42 29 48 0 6 5 11 10 11 6 0 10 -2 10 -5z"/>
<path d="M1861 665 c-80 -115 -151 -286 -130 -312 23 -27 46 -14 63 35 32 88
60 147 114 239 30 51 51 97 47 102 -16 27 -45 8 -94 -64z m42 5 c-9 -16 -21
-30 -26 -30 -9 0 -1 17 21 43 23 26 25 21 5 -13z m-68 -129 c-25 -49 -45 -94
-45 -100 0 -16 -22 -61 -31 -61 -16 0 39 147 83 218 41 66 36 29 -7 -57z"/>
<path d="M2086 693 c-34 -36 -156 -277 -156 -307 0 -25 20 -39 43 -31 6 3 31
36 54 73 46 72 120 158 130 148 4 -3 -1 -14 -10 -24 -40 -44 -60 -167 -37
-226 13 -36 48 -52 68 -32 14 14 14 19 -1 51 -22 46 -21 73 1 133 18 46 70
131 99 160 22 22 35 53 29 68 -9 24 -53 15 -103 -22 -55 -41 -133 -120 -109
-111 24 9 20 0 -16 -38 -18 -18 -44 -52 -58 -75 -14 -23 -33 -51 -42 -63 l-17
-22 -1 23 c0 24 66 163 82 173 5 3 9 9 8 13 -1 4 13 30 30 57 35 57 55 60 21
4 -30 -52 -26 -65 9 -25 37 44 45 67 30 85 -17 21 -26 19 -54 -12z m162 -55
c-86 -106 -129 -230 -98 -288 15 -28 3 -41 -16 -16 -22 31 -17 108 11 173 29
64 26 88 -8 79 -18 -4 -16 0 13 27 96 90 166 108 98 25z"/>
<path d="M11 424 c0 -11 3 -14 6 -6 3 7 2 16 -1 19 -3 4 -6 -2 -5 -13z"/>
</g>
</svg>
